<?xml version="1.0" encoding="UTF-8" standalone="no"?>
<svg
   xmlns:dc="http://purl.org/dc/elements/1.1/"
   xmlns:cc="http://creativecommons.org/ns#"
   xmlns:rdf="http://www.w3.org/1999/02/22-rdf-syntax-ns#"
   xmlns:svg="http://www.w3.org/2000/svg"
   xmlns="http://www.w3.org/2000/svg"
   version="1.1"
   id="svg2"
   viewBox="0 0 500.00001 137.57601"
   height="137.576"
   width="500">
  <defs
     id="defs4" />
  <metadata
     id="metadata7">
    <rdf:RDF>
      <cc:Work
         rdf:about="">
        <dc:format>image/svg+xml</dc:format>
        <dc:type
           rdf:resource="http://purl.org/dc/dcmitype/StillImage" />
        <dc:title></dc:title>
      </cc:Work>
    </rdf:RDF>
  </metadata>
  <g
     transform="translate(0,-914.78616)"
     id="layer1">
    <g
       id="text4136"
       style="font-style:normal;font-weight:normal;font-size:183.67897034px;line-height:125%;font-family:sans-serif;letter-spacing:0px;word-spacing:0px;fill:#000000;fill-opacity:1;stroke:none;stroke-width:1px;stroke-linecap:butt;stroke-linejoin:miter;stroke-opacity:1">
      <path
         id="path4166"
         style="font-style:normal;font-variant:normal;font-weight:normal;font-stretch:normal;font-family:Quicksand;-inkscape-font-specification:Quicksand"
         d="m 44.266536,954.46129 q 17.082144,0 24.98034,10.10234 8.081875,9.91867 8.081875,26.44977 l 0,54.0016 q 0,2.3878 -1.653111,4.041 -1.653111,1.4694 -3.857258,1.4694 -2.387827,0 -4.040938,-1.4694 -1.469432,-1.6532 -1.469432,-4.041 l 0,-53.45056 q 0,-11.93913 -6.061406,-19.28629 -5.877727,-7.53084 -18.367897,-7.53084 -7.898195,0 -15.061675,3.67358 -6.979801,3.67358 -11.388096,9.91867 -4.408296,6.0614 -4.408296,13.22488 l 0,53.45056 q 0,2.3878 -1.6531104,4.041 -1.4694318,1.4694 -3.8572584,1.4694 -2.3878266,0 -4.0409373,-1.4694 -1.469431801489,-1.6532 -1.469431801489,-4.041 l 0,-82.28816 q 0,-2.38782 1.469431801489,-3.85726 1.6531107,-1.65311 4.0409373,-1.65311 2.3878266,0 3.8572584,1.65311 1.6531104,1.46944 1.6531104,3.85726 l 0,10.10235 q 4.959333,-7.8982 14.143281,-13.04121 9.367628,-5.32669 19.102613,-5.32669 z" />
      <path
         id="path4168"
         style="font-style:normal;font-variant:normal;font-weight:normal;font-stretch:normal;font-family:Quicksand;-inkscape-font-specification:Quicksand"
         d="m 146.23133,1052.3622 q -14.51064,0 -24.42931,-8.6329 -9.91866,-8.6329 -15.06167,-23.5109 -4.95933,-15.0617 -4.95933,-33.98065 0,-19.10261 4.95933,-33.98061 4.95933,-14.878 14.87799,-23.51091 10.10235,-8.63291 24.61299,-8.63291 14.51064,0 24.4293,8.63291 10.10234,8.44924 15.06168,23.51091 5.14301,14.878 5.14301,33.98061 0,18.91895 -5.14301,33.98065 -4.95934,14.878 -15.06168,23.5109 -9.91866,8.6329 -24.4293,8.6329 z m 0,-11.3881 q 15.79639,0 24.24562,-14.6943 8.63291,-14.878 8.63291,-40.04205 0,-25.3477 -8.63291,-40.04201 -8.44923,-14.878 -24.24562,-14.878 -15.61272,0 -24.24563,14.878 -8.44923,14.69431 -8.44923,40.04201 0,25.16405 8.44923,40.04205 8.63291,14.6943 24.24563,14.6943 z" />
      <path
         id="path4170"
         style=""
         d="m 286.01758,1004.6056 0,-13.11988 q 0,-1.43499 -0.92249,-2.35749 -0.9225,-0.92249 -2.35749,-0.92249 l -19.67989,0 0,-19.67989 q 0,-1.43499 -0.92249,-2.35749 -0.9225,-0.92249 -2.35749,-0.92249 l -13.11993,0 q -1.43499,0 -2.35748,0.92249 -0.9225,0.9225 -0.9225,2.35749 l 0,19.67989 -19.67989,0 q -1.43499,0 -2.35749,0.92249 -0.92249,0.9225 -0.92249,2.35749 l 0,13.11988 q 0,1.435 0.92249,2.3575 0.9225,0.9225 2.35749,0.9225 l 19.67989,0 0,19.6799 q 0,1.435 0.9225,2.3575 0.92249,0.9225 2.35748,0.9225 l 13.11993,0 q 1.43499,0 2.35749,-0.9225 0.92249,-0.9225 0.92249,-2.3575 l 0,-19.6799 19.67989,0 q 1.43499,0 2.35749,-0.9225 0.92249,-0.9225 0.92249,-2.3575 z m 55.14469,15.8875 q 3.89498,-3.895 3.89498,-9.3275 0,-5.4325 -3.89498,-9.2249 -3.79248,-3.89502 -9.22495,-3.89502 -5.43247,0 -9.32744,3.89502 -3.79248,3.7924 -3.79248,9.2249 0,5.4325 3.79248,9.3275 3.89497,3.7924 9.32744,3.7924 5.43247,0 9.22495,-3.7924 z m 26.23986,-26.23989 q 3.89497,-3.89498 3.89497,-9.32745 0,-5.43247 -3.89497,-9.22495 -3.79248,-3.89498 -9.22495,-3.89498 -5.43247,0 -9.32745,3.89498 -3.79248,3.79248 -3.79248,9.22495 0,5.43247 3.79248,9.32745 3.89498,3.79247 9.32745,3.79247 5.43247,0 9.22495,-3.79247 z m 14.75991,-33.31232 q 15.37492,15.37492 15.37492,37.10479 0,21.72992 -15.37492,37.10482 -15.37491,15.3749 -37.10479,15.3749 -19.67989,0 -34.6448,-13.1199 l -22.54988,0 q -14.96491,13.1199 -34.6448,13.1199 -21.72988,0 -37.1048,-15.3749 -15.37491,-15.3749 -15.37491,-37.10482 0,-21.72987 15.37491,-37.10479 15.37492,-15.37491 37.1048,-15.37491 l 91.83948,0 q 21.72988,0 37.10479,15.37491 z" />
      <path
         id="path4172"
         style="font-style:normal;font-variant:normal;font-weight:normal;font-stretch:normal;font-family:Quicksand;-inkscape-font-specification:Quicksand"
         d="m 456.83534,954.46129 q 12.12281,0 22.04148,6.24508 9.91866,6.24509 15.42903,17.44951 5.69405,11.02073 5.69405,24.98032 0,13.7759 -5.69405,25.164 -5.51037,11.2045 -15.42903,17.6332 -9.73499,6.4288 -21.8578,6.4288 -10.4697,0 -19.46997,-5.143 -8.81659,-5.3267 -14.32696,-13.9596 l 0,12.1228 q 0,2.3878 -1.65311,4.0409 -1.46943,1.6531 -3.85726,1.6531 -2.38783,0 -4.04094,-1.6531 -1.46943,-1.6531 -1.46943,-4.0409 l 0,-125.0854 q 0,-2.38783 1.46943,-3.85726 1.65311,-1.65311 4.04094,-1.65311 2.38783,0 3.85726,1.65311 1.65311,1.46943 1.65311,3.85726 l 0,54.1853 q 4.95933,-9.00027 13.9596,-14.51064 9.00027,-5.51037 19.65365,-5.51037 z m -0.91839,87.61491 q 9.5513,0 17.08214,-5.1431 7.71452,-5.143 11.93913,-13.9596 4.4083,-9.0002 4.4083,-19.8373 0,-11.02072 -4.4083,-19.65363 -4.22461,-8.81659 -11.93913,-13.77593 -7.53084,-4.95933 -17.08214,-4.95933 -9.73499,0 -17.44951,4.95933 -7.71451,4.77566 -11.93913,13.59225 -4.22462,8.81659 -4.22462,19.83731 0,11.0208 4.22462,20.021 4.4083,8.8166 11.93913,13.9596 7.71452,4.9594 17.44951,4.9594 z" />
    </g>
  </g>
</svg>
